<svg width="35" height="35" viewBox="0 0 35 35" fill="none" xmlns="http://www.w3.org/2000/svg">
<g clip-path="url(#clip0_1859_8379)">
<path d="M9.27539 27.3875L9.63997 30.625L12.0025 28.3792L16.0421 17.2959C15.0504 17.0479 14.1754 16.5521 13.4608 15.8667L9.27539 27.3875Z" fill="white"/>
<path d="M21.5402 15.8667C20.8257 16.5521 19.9361 17.0479 18.959 17.2959L22.9986 28.3792L25.3611 30.625L25.7402 27.3875L21.5402 15.8667Z" fill="white"/>
<path d="M21.7875 12.5417C22.225 10.2667 20.9125 8.25417 18.9583 7.55417V5.83333C18.9583 5.03125 18.3021 4.375 17.5 4.375C16.6979 4.375 16.0417 5.03125 16.0417 5.83333V7.55417C14.35 8.16667 13.125 9.77083 13.125 11.6667C13.125 14.35 15.5458 16.4792 18.3167 15.9688C20.0375 15.6479 21.4521 14.2625 21.7875 12.5417ZM17.5 13.125C16.6979 13.125 16.0417 12.4688 16.0417 11.6667C16.0417 10.8646 16.6979 10.2083 17.5 10.2083C18.3021 10.2083 18.9583 10.8646 18.9583 11.6667C18.9583 12.4688 18.3021 13.125 17.5 13.125Z" fill="white"/>
</g>
<defs>
<clipPath id="clip0_1859_8379">
<rect width="35" height="35" fill="white"/>
</clipPath>
</defs>
</svg>
